HIERARCHY
ROOT Hips
{
	OFFSET 0.000000 0.000000 0.000000
	CHANNELS 6 Xposition Yposition Zposition Zrotation Yrotation Xrotation 
	JOINT LowerBack
	{
		OFFSET 0.000000 0.000000 0.000000
		CHANNELS 3 Zrotation Yrotation Xrotation
		JOINT Spine
		{
			OFFSET 0.028270 2.035590 -0.193380
			CHANNELS 3 Zrotation Yrotation Xrotation
			JOINT Spine1
			{
				OFFSET 0.056720 2.048850 -0.042750
				CHANNELS 3 Zrotation Yrotation Xrotation
				JOINT Neck
				{
					OFFSET 0.000000 0.000000 0.000000
					CHANNELS 3 Zrotation Yrotation Xrotation
					JOINT Neck1
					{
						OFFSET -0.054170 1.746240 0.172020
						CHANNELS 3 Zrotation Yrotation Xrotation
						JOINT Head
						{
							OFFSET 0.104070 1.761360 -0.123970
							CHANNELS 3 Zrotation Yrotation Xrotation
							End Site
							{
								OFFSET 0.000000 0.000000 0.000000
							}
						}
					}
				}
				JOINT LeftShoulder
				{
					OFFSET 0.000000 0.000000 0.000000
					CHANNELS 3 Zrotation Yrotation Xrotation
					JOINT LeftArm
					{
						OFFSET 3.362410 1.200890 -0.311210
						CHANNELS 3 Zrotation Yrotation Xrotation
						JOINT LeftForeArm
						{
							OFFSET 4.983000 -0.000000 -0.000000
							CHANNELS 3 Zrotation Yrotation Xrotation
							JOINT LeftHand
							{
								OFFSET 3.483560 -0.000000 -0.000000
								CHANNELS 3 Zrotation Yrotation Xrotation
								JOINT LeftFingerBase
								{
									OFFSET 0.000000 0.000000 0.000000
									CHANNELS 3 Zrotation Yrotation Xrotation
									JOINT LeftHandIndex1
									{
										OFFSET 0.715260 -0.000000 -0.000000
										CHANNELS 3 Zrotation Yrotation Xrotation
										End Site
										{
											OFFSET 0.000000 0.000000 0.000000
										}
									}
								}
								JOINT LThumb
								{
									OFFSET 0.000000 0.000000 0.000000
									CHANNELS 3 Zrotation Yrotation Xrotation
									End Site
									{
										OFFSET 0.000000 0.000000 0.000000
									}
								}
							}
						}
					}
				}
				JOINT RightShoulder
				{
					OFFSET 0.000000 0.000000 0.000000
					CHANNELS 3 Zrotation Yrotation Xrotation
					JOINT RightArm
					{
						OFFSET -3.136600 1.374050 -0.404650
						CHANNELS 3 Zrotation Yrotation Xrotation
						JOINT RightForeArm
						{
							OFFSET -5.241900 -0.000000 -0.000000
							CHANNELS 3 Zrotation Yrotation Xrotation
							JOINT RightHand
							{
								OFFSET -3.444170 -0.000000 -0.000000
								CHANNELS 3 Zrotation Yrotation Xrotation
								JOINT RightFingerBase
								{
									OFFSET 0.000000 0.000000 0.000000
									CHANNELS 3 Zrotation Yrotation Xrotation
									JOINT RightHandIndex1
									{
										OFFSET -0.622530 -0.000000 -0.000000
										CHANNELS 3 Zrotation Yrotation Xrotation
										End Site
										{
											OFFSET 0.000000 0.000000 0.000000
										}
									}
								}
								JOINT RThumb
								{
									OFFSET 0.000000 0.000000 0.000000
									CHANNELS 3 Zrotation Yrotation Xrotation
									End Site
									{
										OFFSET 0.000000 0.000000 0.000000
									}
								}
							}
						}
					}
				}
			}
		}
	}
}
}
MOTION
Frames: 12
Frame Time: 0.008333
-0.955327 17.831181 -1.205615 -56.424099 86.213296 -41.896212 0.713435 5.051582 -5.309421 -1.662082 4.647211 -4.903774 -9.407085 4.740365 -3.227390 11.162725 -3.229821 -5.961361 -2.873227 -0.254311 0.493076 0.000000 0.000000 0.000000 7.181032 20.699277 -1.114571 -53.729112 35.530236 24.437354 -179.996225 -65.868535 179.961253 21.462785 -20.805600 -4.181694 -0.448857 0.618841 0.000000 0.000000 0.000000 0.000000 0.000000 0.000000 0.000000 4.753252 8.089299 -3.016819 87.164636 20.187813 35.134354 179.626282 62.851297 179.898945 -11.969647 32.706866 -3.806609 0.308829 -1.669132 -0.000000 0.000000 0.000000 0.000000 0.000000 0.000000 0.000000 
-0.737960 17.834125 -1.252829 -62.094622 86.493672 -47.877188 0.756953 5.014270 -5.115648 -1.657534 4.618549 -4.866129 -9.388537 4.716870 -3.197846 11.075198 -3.274720 -6.056795 -2.881726 -0.253791 0.467096 0.000000 0.000000 0.000000 7.093751 21.053507 -1.117338 -53.768728 36.254732 23.554808 -179.989568 -65.183606 179.961440 21.511157 -20.946695 -4.220878 -0.451667 0.623603 0.000000 0.000000 0.000000 0.000000 0.000000 0.000000 0.000000 4.760167 8.132431 -3.068143 87.518959 20.416036 35.435318 179.572275 63.055043 179.903172 -11.661055 32.468265 -3.680117 0.304116 -1.660390 -0.000000 0.000000 0.000000 0.000000 0.000000 0.000000 0.000000 
-0.523219 17.826073 -1.301038 -69.203789 86.758829 -55.330033 0.807582 4.956323 -4.885712 -1.652724 4.570590 -4.818189 -9.373885 4.675937 -3.162871 11.001808 -3.360540 -6.159486 -2.903015 -0.254111 0.438360 0.000000 0.000000 0.000000 6.994076 21.341866 -1.120565 -53.965695 36.843143 22.659845 -179.989311 -64.569474 179.961050 21.568257 -21.078453 -4.260155 -0.453836 0.628962 0.000000 0.000000 0.000000 0.000000 0.000000 0.000000 0.000000 4.850551 8.125031 -3.102233 87.798271 20.568237 35.686667 179.518802 63.281300 179.907192 -11.377427 32.249471 -3.565144 0.299726 -1.651172 -0.000000 0.000000 0.000000 0.000000 0.000000 0.000000 0.000000 
-0.311106 17.806990 -1.350346 -77.993591 86.975051 -64.491459 0.874334 4.885386 -4.623197 -1.645606 4.509884 -4.760485 -9.361357 4.623991 -3.124183 10.935485 -3.482551 -6.267149 -2.934523 -0.255108 0.407528 0.000000 0.000000 0.000000 6.883291 21.564308 -1.125144 -54.321255 37.264505 21.778015 -179.995839 -64.030458 179.960043 21.627813 -21.206978 -4.299424 -0.455328 0.635310 0.000000 0.000000 0.000000 0.000000 0.000000 0.000000 0.000000 4.999398 8.070691 -3.122221 88.006517 20.628509 35.874999 179.471814 63.525769 179.910679 -11.136068 32.058635 -3.467688 0.295755 -1.641565 -0.000000 0.000000 0.000000 0.000000 0.000000 0.000000 0.000000 
-0.101583 17.776887 -1.400771 -88.358709 87.105233 -75.248412 0.963959 4.807702 -4.333086 -1.633396 4.441636 -4.693931 -9.348528 4.565708 -3.083000 10.869349 -3.634522 -6.377935 -2.973502 -0.256587 0.375139 0.000000 0.000000 0.000000 6.761389 21.724623 -1.131325 -54.829933 37.491884 20.936075 179.991034 -63.569787 179.958409 21.683600 -21.337417 -4.338681 -0.456160 0.643000 0.000000 0.000000 0.000000 0.000000 0.000000 0.000000 0.000000 5.181657 7.973453 -3.131881 88.150436 20.586811 35.990546 179.436373 63.785305 179.913372 -10.952573 31.903032 -3.392741 0.292321 -1.631631 -0.000000 0.000000 0.000000 0.000000 0.000000 0.000000 0.000000 
0.105418 17.735871 -1.452157 -99.620693 87.120810 -86.913538 1.077579 4.727550 -4.022155 -1.613281 4.369664 -4.619742 -9.331426 4.504205 -3.038945 10.797007 -3.810152 -6.491734 -3.017425 -0.258343 0.341247 0.000000 0.000000 0.000000 6.628676 21.831921 -1.138679 -55.483527 37.498775 20.159950 179.971914 -63.189513 179.956146 21.728474 -21.473696 -4.377324 -0.456372 0.652405 0.000000 0.000000 0.000000 0.000000 0.000000 0.000000 0.000000 5.376437 7.837370 -3.134502 88.235850 20.440400 36.029085 179.416189 64.065544 179.915112 -10.839568 31.788241 -3.344200 0.289561 -1.621212 -0.000000 0.000000 0.000000 0.000000 0.000000 0.000000 0.000000 
0.309901 17.684044 -1.504289 -110.670109 87.014149 -98.367496 1.210408 4.646916 -3.698425 -1.583701 4.296279 -4.539451 -9.306181 4.441317 -2.990573 10.714096 -4.002567 -6.609330 -3.064209 -0.260189 0.305656 0.000000 0.000000 0.000000 6.485135 21.899276 -1.146524 -56.270275 37.262443 19.471950 179.947622 -62.888214 179.953241 21.755252 -21.616574 -4.414052 -0.456039 0.663860 0.000000 0.000000 0.000000 0.000000 0.000000 0.000000 0.000000 5.567380 7.667859 -3.133084 88.270143 20.192622 35.990381 179.413236 64.370716 179.915832 -10.804545 31.719431 -3.324658 0.287559 -1.610255 -0.000000 0.000000 0.000000 0.000000 0.000000 0.000000 0.000000 
0.511972 17.621729 -1.556744 -120.547351 86.804451 -108.639911 1.351494 4.566057 -3.370885 -1.545556 4.222764 -4.454956 -9.269253 4.378323 -2.936559 10.618469 -4.204723 -6.731221 -3.112549 -0.262006 0.268242 0.000000 0.000000 0.000000 6.326814 21.939317 -1.154107 -57.171985 36.770029 18.887750 179.919548 -62.666493 179.949731 21.752283 -21.761926 -4.445667 -0.455121 0.677458 -0.000000 0.000000 0.000000 0.000000 0.000000 0.000000 0.000000 5.747302 7.472144 -3.128801 88.258208 19.852642 35.878405 179.427639 64.712003 179.915581 -10.849971 31.699785 -3.334911 0.286367 -1.598577 -0.000000 0.000000 0.000000 0.000000 0.000000 0.000000 0.000000 
0.711796 17.549312 -1.609016 -128.821335 86.528617 -117.287292 1.487038 4.485140 -3.052375 -1.501804 4.150201 -4.368582 -9.218205 4.316665 -2.874469 10.511233 -4.413186 -6.859279 -3.161931 -0.263735 0.228532 0.000000 0.000000 0.000000 6.151637 21.964359 -1.161215 -58.170626 36.014758 18.415992 179.889049 -62.523383 179.945655 21.707250 -21.898186 -4.467074 -0.453541 0.693113 -0.000000 0.000000 0.000000 0.000000 0.000000 0.000000 0.000000 5.918557 7.255320 -3.121051 88.203474 19.434707 35.703147 179.457650 65.104269 179.914522 -10.975197 31.732189 -3.374851 0.286086 -1.585998 -0.000000 0.000000 0.000000 0.000000 0.000000 0.000000 0.000000 
0.909303 17.467161 -1.660742 -135.644581 86.210112 -124.448057 1.610953 4.401390 -2.755510 -1.454001 4.075862 -4.281006 -9.150133 4.254111 -2.796804 10.392450 -4.617150 -6.997953 -3.211376 -0.265228 0.185278 0.000000 0.000000 0.000000 5.965179 22.004876 -1.164164 -59.254759 34.963561 18.073391 179.858261 -62.475325 179.941062 21.622987 -22.017313 -4.477070 -0.451581 0.710777 0.000000 0.000000 0.000000 0.000000 0.000000 0.000000 0.000000 6.077104 7.027419 -3.114229 88.109436 18.947926 35.464736 179.503015 65.555183 179.912774 -11.164071 31.816893 -3.439887 0.286104 -1.572299 -0.000000 0.000000 0.000000 0.000000 0.000000 0.000000 0.000000 
1.104642 17.376173 -1.711286 -141.361970 85.878988 -130.456675 1.704007 4.311787 -2.491409 -1.406543 3.997429 -4.194418 -9.065593 4.188351 -2.702602 10.268196 -4.809531 -7.146938 -3.262166 -0.266595 0.138513 0.000000 0.000000 0.000000 5.762042 22.069617 -1.161908 -60.400981 33.618525 17.856260 179.830506 -62.522580 179.936104 21.497721 -22.117802 -4.474957 -0.449446 0.730363 0.000000 0.000000 0.000000 0.000000 0.000000 0.000000 0.000000 6.239010 6.797196 -3.106323 87.974662 18.401894 35.168000 179.560704 66.076811 179.910597 -11.401073 31.952685 -3.525421 0.286117 -1.557347 -0.000000 0.000000 0.000000 0.000000 0.000000 0.000000 0.000000 
1.298116 17.277451 -1.760253 -146.275049 85.556923 -135.599671 1.752651 4.215739 -2.277702 -1.362734 3.914047 -4.112190 -8.966420 4.118180 -2.590809 10.145419 -4.992534 -7.306148 -3.315034 -0.267928 0.088412 0.000000 0.000000 0.000000 5.536136 22.158909 -1.156508 -61.588857 31.996706 17.756964 179.809422 -62.668417 179.930969 21.318662 -22.167133 -4.451141 -0.447089 0.750903 0.000000 0.000000 0.000000 0.000000 0.000000 0.000000 0.000000 6.421497 6.562792 -3.093665 87.796433 17.809139 34.826253 179.627112 66.682576 179.908287 -11.673815 32.140206 -3.628150 0.286000 -1.540971 -0.000000 0.000000 0.000000 0.000000 0.000000 0.000000 0.000000 
